<?xml version="1.0" encoding="UTF-8" standalone="no"?>
<svg
   xmlns:dc="http://purl.org/dc/elements/1.1/"
   xmlns:cc="http://creativecommons.org/ns#"
   xmlns:rdf="http://www.w3.org/1999/02/22-rdf-syntax-ns#"
   xmlns:svg="http://www.w3.org/2000/svg"
   xmlns="http://www.w3.org/2000/svg"
   xmlns:sodipodi="http://sodipodi.sourceforge.net/DTD/sodipodi-0.dtd"
   xmlns:inkscape="http://www.inkscape.org/namespaces/inkscape"
   id="svg_id14b7f89b"
   version="1.1"
   shape-rendering="geometricPrecision"
   viewBox="0 0 512 512"
   width="250"
   height="250"
   inkscape:version="0.48.4 r9939"
   sodipodi:docname="cellph.svg">
  <metadata
     id="metadata15">
    <rdf:RDF>
      <cc:Work
         rdf:about="">
        <dc:format>image/svg+xml</dc:format>
        <dc:type
           rdf:resource="http://purl.org/dc/dcmitype/StillImage" />
        <dc:title></dc:title>
      </cc:Work>
    </rdf:RDF>
  </metadata>
  <defs
     id="defs13" />
  <sodipodi:namedview
     pagecolor="#ffffff"
     bordercolor="#666666"
     borderopacity="1"
     objecttolerance="10"
     gridtolerance="10"
     guidetolerance="10"
     inkscape:pageopacity="0"
     inkscape:pageshadow="2"
     inkscape:window-width="1366"
     inkscape:window-height="716"
     id="namedview11"
     showgrid="false"
     inkscape:zoom="0.944"
     inkscape:cx="125"
     inkscape:cy="125"
     inkscape:window-x="0"
     inkscape:window-y="0"
     inkscape:window-maximized="1"
     inkscape:current-layer="g5" />
  <g
     id="g5"
     fill="#B91D47">
    <svg
       xml:space="preserve"
       viewBox="0 0 24 40"
       x="0%"
       y="0%"
       width="100%"
       height="100%"
       version="1.1"
       class="i_c_d"
       id="svg7"
       style="fill:#ffffff;fill-opacity:1"><path
         d="M20,0H4C1.791,0,0,1.79,0,4v32c0,2.209,1.791,4,4,4h16c2.209,0,4-1.791,4-4V4C24,1.79,22.209,0,20,0z M12,38    c-1.104,0-2-0.896-2-2s0.896-2,2-2s2,0.896,2,2S13.104,38,12,38z M20,31.999H4V4h16V31.999z"
         id="path9"
         style="fill:#ffffff;fill-opacity:1" /></svg>  </g>
</svg>
